<svg height="512pt" viewBox="0 -40 512 512" width="512pt" xmlns="http://www.w3.org/2000/svg"><path d="m440.371094 312.113281c-30.9375 0-56.113282-25.175781-56.113282-56.113281s25.175782-56.113281 56.113282-56.113281 56.113281 25.175781 56.113281 56.113281-25.175781 56.113281-56.113281 56.113281zm0-80.160156c-13.261719 0-24.046875 10.785156-24.046875 24.046875s10.785156 24.046875 24.046875 24.046875c13.261718 0 24.046875-10.785156 24.046875-24.046875s-10.785157-24.046875-24.046875-24.046875zm0 0" fill="#fff"/><path d="m416.324219 256c0-12.21875 9.191406-22.226562 21.003906-23.738281 1.144531-12.414063 1.859375-23.417969 2.304687-32.335938-30.597656.402344-55.375 25.386719-55.375 56.074219 0 25.863281 17.617188 47.640625 41.464844 54.105469 2.292969-10.753907 4.242188-21.40625 5.875-31.769531-8.921875-3.519532-15.273437-12.175782-15.273437-22.335938zm0 0" fill="#fff5d7"/><path d="m408.03125 175.839844h-304.335938c-4.507812 0-8.132812 3.664062-8.015624 8.171875.777343 29.480469 5.917968 132.195312 39.941406 200.246093h240.484375c34.027343-68.050781 39.167969-170.765624 39.945312-200.246093.117188-4.507813-3.507812-8.171875-8.019531-8.171875zm0 0" fill="#fff"/><path d="m168.132812 321.539062c-16.910156-52.882812-22.199218-113.117187-23.859374-145.699218h-40.578126c-4.507812 0-8.132812 3.664062-8.015624 8.171875.777343 29.480469 5.917968 132.195312 39.941406 200.246093h240.484375c3.808593-7.617187 7.207031-15.710937 10.324219-24.046874h-164.917969c-24.28125 0-45.984375-15.546876-53.378907-38.671876zm0 0" fill="#fff5d7"/><path d="m256 135.757812c-62.796875 0-116.074219 16.746094-135.902344 40.082032h271.804688c-19.828125-23.335938-73.105469-40.082032-135.902344-40.082032zm0 0" fill="#fff5d7"/><path d="m99.476562 240.269531c4.585938 43.550781 14.523438 100.742188 36.144532 143.988281h240.484375c21.773437-43.542968 31.691406-101.199218 36.234375-144.863281-2.210938.203125-4.503906.539063-6.957032 1.148438-16.316406 1.832031-20 7.441406-42.433593 7.441406-26.800781 0-26.800781-8.015625-53.601563-8.015625-26.765625 0-26.785156 8.003906-53.523437 8.011719.015625 0 .027343.003906.042969.003906h-.085938c.019531 0 .027344-.003906.042969-.003906-26.734375-.007813-26.753907-8.011719-53.523438-8.011719-26.796875 0-26.796875 8.015625-53.601562 8.015625-22.398438 0-26.097657-5.59375-42.347657-7.433594-2.417968-.351562-4.679687-.386719-6.875-.28125zm0 0" fill="#e2a975"/><path d="m385.292969 363.058594c.363281-.9375.691406-1.902344 1.046875-2.847656h-164.828125c-24.277344 0-45.984375-15.546876-53.378907-38.675782-7.710937-24.121094-12.988281-49.746094-16.625-73.605468-.921874.019531-1.8125.054687-2.804687.054687-22.398437 0-26.101563-5.59375-42.351563-7.433594-2.417968-.351562-4.679687-.386719-6.875-.28125 4.585938 43.550781 14.523438 100.742188 36.148438 143.988281h240.484375c2.296875-4.597656 4.394531-9.425781 6.4375-14.308593.9375-2.269531 1.855469-4.570313 2.746094-6.890625zm0 0" fill="#d19a6e"/><path d="m128.558594 405.316406.003906.007813c9.613281 12.019531 24.171875 19.015625 39.5625 19.015625h175.75c15.390625 0 29.949219-6.996094 39.5625-19.015625l.003906-.007813c10.648438-13.308594 26.773438-21.058594 43.820313-21.058594h-342.523438c17.046875 0 33.171875 7.75 43.820313 21.058594zm0 0" fill="#dad8db"/><path d="m363.085938 296.082031c-26.804688 0-26.804688-8.015625-53.601563-8.015625-26.769531 0-26.785156 8.003906-53.523437 8.011719.015624 0 .027343.003906.042968.003906h-.085937c.015625 0 .027343-.003906.042969-.003906-26.738282-.007813-26.757813-8.011719-53.523438-8.011719-26.800781 0-26.800781 8.015625-53.601562 8.015625-22.398438 0-26.101563-5.59375-42.351563-7.433593 5.921875 32.679687 15.050781 67.164062 29.273437 95.609374h240.484376c14.226562-28.449218 23.355468-62.933593 29.273437-95.617187-16.316406 1.832031-19.996094 7.441406-42.429687 7.441406zm0 0" fill="#966a5b"/><path d="m221.648438 360.210938c-24.28125 0-45.984376-15.546876-53.378907-38.675782-2.742187-8.566406-5.148437-17.335937-7.3125-26.144531-3.390625.425781-7.3125.6875-12.121093.6875-22.398438 0-26.101563-5.589844-42.351563-7.429687 5.921875 32.679687 15.050781 67.160156 29.273437 95.609374h240.484376c3.808593-7.617187 7.203124-15.714843 10.324218-24.046874zm0 0" fill="#785353"/><path d="m223.542969 137.316406c-48.21875 4.632813-87.148438 19.339844-103.445313 38.523438h71.773438c6.859375-14.53125 17.796875-27.589844 31.671875-38.523438zm0 0" fill="#f9eac7"/><path d="m504.5 376.757812h-116.480469c8.910157-20.378906 15.605469-43.054687 20.632813-65.625 9.59375 5.511719 20.550781 8.480469 31.71875 8.480469 35.078125 0 63.613281-28.535156 63.613281-63.613281 0-35.074219-28.535156-63.613281-63.613281-63.613281-5.84375 0-11.546875.785156-17.058594 2.316406.179688-4.097656.296875-7.628906.371094-10.492187.109375-4.203126-1.441406-8.175782-4.371094-11.179688-2.945312-3.023438-6.902344-4.691406-11.144531-4.691406h-12.949219c-23.496094-24.441406-77.441406-40.082032-139.21875-40.082032-61.773438 0-115.722656 15.640626-139.214844 40.082032h-12.949218c-4.242188 0-8.199219 1.667968-11.148438 4.691406-2.925781 3.003906-4.476562 6.976562-4.367188 11.179688.753907 28.65625 5.5625 123.703124 35.664063 192.550781h-116.484375c-4.140625 0-7.5 3.355469-7.5 7.5 0 4.140625 3.359375 7.5 7.5 7.5h77.238281c14.851563 0 28.6875 6.648437 37.96875 18.25 1.976563 2.472656 4.132813 4.746093 6.433594 6.828125h-33.464844c-4.140625 0-7.5 3.359375-7.5 7.5 0 4.144531 3.359375 7.5 7.5 7.5h320.648438c4.140625 0 7.5-3.355469 7.5-7.5 0-4.140625-3.359375-7.5-7.5-7.5h-33.464844c2.300781-2.085938 4.460937-4.363282 6.441406-6.835938 9.273438-11.59375 23.109375-18.242187 37.960938-18.242187h77.238281c4.140625 0 7.5-3.359375 7.5-7.5 0-4.144531-3.359375-7.503907-7.5-7.503907zm-64.128906-169.371093c26.804687 0 48.613281 21.808593 48.613281 48.613281s-21.808594 48.613281-48.613281 48.613281c-10.230469 0-20.222656-3.257812-28.464844-9.214843 1.296875-6.800782 2.460938-13.542969 3.492188-20.152344 5.773437 7.476562 14.816406 12.304687 24.972656 12.304687 17.394531 0 31.546875-14.152343 31.546875-31.550781 0-17.394531-14.152344-31.546875-31.546875-31.546875-7.382813 0-14.171875 2.554687-19.554688 6.816406.683594-7.363281 1.210938-14.234375 1.617188-20.457031 5.691406-2.265625 11.710937-3.425781 17.9375-3.425781zm-16.546875 48.613281c0-9.125 7.421875-16.546875 16.546875-16.546875s16.546875 7.421875 16.546875 16.546875-7.421875 16.550781-16.546875 16.550781-16.546875-7.425781-16.546875-16.550781zm-249.730469-101.769531c23.894531-7.175781 52.21875-10.972657 81.90625-10.972657s58.011719 3.796876 81.90625 10.972657c13 3.90625 24.222656 8.722656 33.082031 14.109375h-229.976562c8.859375-5.386719 20.082031-10.203125 33.082031-14.109375zm-58.566406 142.144531c4.4375.691406 7.785156 1.746094 11.277344 2.851562 2.21875.699219 4.515624 1.425782 7.128906 2.082032.613281.152344 1.226562.226562 1.832031.226562 3.359375 0 6.414063-2.273437 7.269531-5.675781 1.007813-4.019531-1.433594-8.09375-5.449218-9.101563-2.179688-.542968-4.160157-1.171874-6.261719-1.835937-4.84375-1.53125-10.332031-3.257813-18.628907-3.984375-1.957031-11.539062-3.511718-22.789062-4.75-33.378906 8.757813.382812 13.6875 1.9375 18.859376 3.570312 6.464843 2.042969 13.789062 4.355469 27.632812 4.355469s21.171875-2.3125 27.636719-4.355469c5.957031-1.882812 11.585937-3.660156 23.117187-3.660156 11.527344 0 17.152344 1.777344 23.105469 3.660156 6.460937 2.042969 13.785156 4.355469 27.625 4.355469 13.847656 0 21.179687-2.3125 27.644531-4.355469 5.960938-1.882812 11.589844-3.660156 23.128906-3.660156 4.628907 0 8.632813.285156 12.238282.867188 4.085937.660156 7.9375-2.117188 8.601562-6.207032.660156-4.089844-2.117187-7.9375-6.207031-8.601562-4.40625-.710938-9.191406-1.058594-14.632813-1.058594-13.851562 0-21.179687 2.3125-27.644531 4.355469-5.960937 1.882812-11.59375 3.660156-23.128906 3.660156-11.527344 0-17.148437-1.777344-23.105469-3.660156-6.460937-2.042969-13.785156-4.355469-27.625-4.355469-13.84375 0-21.171875 2.3125-27.636718 4.355469-5.957032 1.882812-11.585938 3.660156-23.117188 3.660156s-17.15625-1.777344-23.113281-3.660156c-6.035157-1.90625-12.828125-4.050781-24.972657-4.328125-2.054687-21.480469-2.78125-38.984375-3.035156-48.683594-.003906-.09375.007813-.203125.117188-.316406.152344-.15625.339844-.15625.402344-.15625h304.332031c.0625 0 .246093 0 .398437.15625.113282.113281.125.222656.121094.316406-.253906 9.699219-.984375 27.203125-3.035156 48.6875-12.164063.273438-18.960938 2.417969-25.003906 4.324219-5.964844 1.882812-11.601563 3.660156-23.148438 3.660156-1.71875 0-3.375-.039063-4.921875-.121094-4.128906-.214843-7.664063 2.972657-7.875 7.109375-.207031 4.136719 2.972656 7.664063 7.109375 7.875 1.800781.089844 3.714844.136719 5.6875.136719 13.859375 0 21.191406-2.3125 27.660156-4.355469 5.183594-1.636718 10.121094-3.191406 18.894532-3.570312-1.234376 10.589844-2.789063 21.835937-4.746094 33.375-8.3125.726562-13.808594 2.457031-18.660156 3.988281-5.964844 1.882813-11.601563 3.660156-23.148438 3.660156s-17.179688-1.777343-23.144531-3.660156c-6.472657-2.042969-13.804688-4.355469-27.660157-4.355469-13.851562 0-21.179687 2.3125-27.644531 4.355469-5.960937 1.882813-11.59375 3.660156-23.128906 3.660156-11.527344 0-17.148437-1.777343-23.105469-3.660156-6.460937-2.042969-13.785156-4.355469-27.625-4.355469-13.84375 0-21.171875 2.3125-27.636718 4.355469-3.441407 1.085937-6.691407 2.113281-10.925782 2.796875-4.089844.660156-6.871094 4.511719-6.207031 8.601562.660156 4.085938 4.515625 6.863282 8.597656 6.207032 5.316407-.859375 9.25-2.101563 13.054688-3.304688 5.957031-1.878906 11.585937-3.660156 23.121093-3.660156 11.523438 0 17.148438 1.777344 23.101563 3.660156 6.460937 2.042969 13.785156 4.355469 27.625 4.355469 13.851563 0 21.179687-2.3125 27.644531-4.355469 5.960938-1.878906 11.59375-3.660156 23.128906-3.660156 11.546876 0 17.183594 1.78125 23.148438 3.664062 6.46875 2.039063 13.800781 4.351563 27.660156 4.351563 13.855469 0 21.1875-2.3125 27.660156-4.351563 3.503907-1.109374 6.863282-2.164062 11.3125-2.855468-5.5 27.703125-13.449218 56.113281-24.929687 80.386718h-231.089844c-11.480469-24.269531-19.429687-52.679687-24.929687-80.382812zm262.050781 104.265625c-8.234375 10.292969-20.519531 16.199219-33.703125 16.199219h-175.75c-13.183594 0-25.46875-5.902344-33.710938-16.207032-2.617187-3.273437-5.53125-6.226562-8.65625-8.875h260.488282c-3.132813 2.652344-6.046875 5.605469-8.667969 8.882813zm0 0"/><path d="m240.484375 103.695312c0 4.140626 3.359375 7.5 7.5 7.5s7.5-3.359374 7.5-7.5c0-4.691406 1.886719-6.785156 5.816406-10.710937 4.3125-4.304687 10.214844-10.203125 10.214844-21.320313 0-11.125-5.902344-17.03125-10.210937-21.34375-3.929688-3.933593-5.820313-6.03125-5.820313-10.738281s1.890625-6.804687 5.820313-10.738281c4.308593-4.3125 10.210937-10.21875 10.210937-21.34375 0-4.140625-3.359375-7.5-7.5-7.5s-7.5 3.359375-7.5 7.5c0 4.707031-1.890625 6.804688-5.820313 10.738281-4.308593 4.3125-10.210937 10.21875-10.210937 21.34375s5.902344 17.03125 10.210937 21.34375c3.929688 3.933594 5.820313 6.03125 5.820313 10.738281 0 4.6875-1.886719 6.785157-5.816406 10.707032-4.3125 4.308594-10.214844 10.207031-10.214844 21.324218zm0 0"/><path d="m211.265625 85.328125c-1.289063 3.9375.859375 8.171875 4.796875 9.460937.773438.253907 1.558594.375 2.332031.375 3.15625 0 6.09375-2.007812 7.128907-5.167968 1.59375-4.875 4.058593-9.335938 7.53125-13.632813 2.21875-2.75 2.21875-6.671875 0-9.421875-6.484376-8.042968-9.636719-16.992187-9.636719-27.359375 0-4.144531-3.359375-7.5-7.5-7.5s-7.5 3.355469-7.5 7.5c0 11.757813 3.195312 22.515625 9.507812 32.058594-2.875 4.320313-5.070312 8.839844-6.660156 13.6875zm0 0"/><path d="m288.582031 71.664062c0 4.816407-.707031 9.417969-2.09375 13.671876-1.289062 3.9375.863281 8.171874 4.800781 9.457031.773438.253906 1.558594.375 2.328126.375 3.15625 0 6.097656-2.011719 7.128906-5.175781 1.882812-5.761719 2.835937-11.925782 2.835937-18.328126 0-13.75-4.367187-26.132812-12.980469-36.796874-2.605468-3.222657-7.324218-3.722657-10.546874-1.121094-3.222657 2.601562-3.726563 7.324218-1.125 10.546875 6.496093 8.039062 9.652343 16.992187 9.652343 27.371093zm0 0"/></svg>